<svg width="20" height="20" viewBox="0 0 20 20" fill="none" xmlns="http://www.w3.org/2000/svg">
<path d="M10 0C4.48595 0 0 4.48595 0 10C0 15.514 4.48595 20 10 20C15.514 20 20 15.514 20 10C20 4.48595 15.514 0 10 0ZM10 18.5714C5.27373 18.5714 1.42857 14.7263 1.42857 10C1.42857 5.27373 5.27373 1.42857 10 1.42857C14.7263 1.42857 18.5714 5.27373 18.5714 10C18.5714 14.7263 14.7263 18.5714 10 18.5714Z" fill="#808080"/>
<path d="M13.0645 6.93556C12.7855 6.65659 12.3333 6.65659 12.0543 6.93556L10 8.98984L7.94564 6.93548C7.66667 6.65651 7.21445 6.65651 6.93548 6.93548C6.65652 7.21444 6.65652 7.66667 6.93548 7.94563L8.98985 10L6.93548 12.0544C6.65652 12.3333 6.65652 12.7856 6.93548 13.0645C7.07493 13.204 7.25778 13.2737 7.44056 13.2737C7.62334 13.2737 7.80612 13.204 7.94564 13.0645L10 11.0102L12.0544 13.0645C12.1938 13.204 12.3767 13.2737 12.5595 13.2737C12.7422 13.2737 12.925 13.204 13.0645 13.0645C13.3435 12.7856 13.3435 12.3333 13.0645 12.0544L11.0102 10L13.0645 7.94563C13.3434 7.66675 13.3434 7.21444 13.0645 6.93556Z" fill="#808080"/>
</svg>
