<?xml version="1.0" encoding="utf-8"?>
<!-- Generator: Adobe Illustrator 21.1.0, SVG Export Plug-In . SVG Version: 6.00 Build 0)  -->
<svg version="1.1" id="Layer_1" xmlns="http://www.w3.org/2000/svg" xmlns:xlink="http://www.w3.org/1999/xlink" x="0px" y="0px"
	 width="32px" height="32px" viewBox="0 0 32 32" style="enable-background:new 0 0 32 32;" xml:space="preserve">
<style type="text/css">
	.st0{fill-rule:evenodd;clip-rule:evenodd;fill:#FFFFFF;}
</style>
<path class="st0" d="M16,0.6C7.3,0.6,0.2,7.7,0.2,16.4c0,7,4.5,12.9,10.8,15c0.8,0.1,1.1-0.3,1.1-0.8c0-0.4,0-1.4,0-2.7
	c-4.4,1-5.3-2.1-5.3-2.1C6,24,5,23.5,5,23.5c-1.4-1,0.1-1,0.1-1c1.6,0.1,2.4,1.6,2.4,1.6c1.4,2.4,3.7,1.7,4.6,1.3
	c0.1-1,0.6-1.7,1-2.1c-3.5-0.4-7.2-1.8-7.2-7.8c0-1.7,0.6-3.1,1.6-4.2c-0.2-0.4-0.7-2,0.2-4.2c0,0,1.3-0.4,4.3,1.6
	c1.3-0.4,2.6-0.5,4-0.5c1.3,0,2.7,0.2,4,0.5c3-2,4.3-1.6,4.3-1.6c0.9,2.2,0.3,3.8,0.2,4.2c1,1.1,1.6,2.5,1.6,4.2
	c0,6.1-3.7,7.4-7.2,7.8c0.6,0.5,1.1,1.5,1.1,2.9c0,2.1,0,3.8,0,4.3c0,0.4,0.3,0.9,1.1,0.8c6.3-2.1,10.8-8,10.8-15
	C31.8,7.7,24.7,0.6,16,0.6z"/>
</svg>
